<?xml version="1.0" encoding="utf-8"?>
<!-- Generator: Adobe Illustrator 16.0.0, SVG Export Plug-In . SVG Version: 6.00 Build 0)  -->
<!DOCTYPE svg PUBLIC "-//W3C//DTD SVG 1.1//EN" "http://www.w3.org/Graphics/SVG/1.1/DTD/svg11.dtd">
<svg version="1.1" id="Layer_1" xmlns="http://www.w3.org/2000/svg" xmlns:xlink="http://www.w3.org/1999/xlink" x="0px" y="0px"
	 width="499.994px" height="92.333px" viewBox="0 0 499.994 92.333" enable-background="new 0 0 499.994 92.333"
	 xml:space="preserve">
<g>
	<g>
		<path fill="#F4513B" d="M344.195,46.098c1.42-1.42,2.597-4.331,2.597-6.816c0-4.047-2.049-5.822-5.102-5.822
			c-0.781,0-1.693,0.071-1.693,0.213v12.354C340.997,45.885,342.704,45.885,344.195,46.098z"/>
	</g>
	<g>
		<path fill="#F4513B" d="M339.997,48.441v10.934c0,2.769,0.933,4.047,3.347,4.047c3.763,0,5.781-2.84,5.781-6.319
			C349.125,50.997,343.997,48.441,339.997,48.441z"/>
	</g>
	<g>
		<polygon fill="#F4513B" points="297.054,50.667 305.574,50.667 301.457,37.887 		"/>
	</g>
	<g>
		<path fill="#F4513B" d="M192.073,33.46c-0.853,0-2.076,0.071-2.076,0.213v13.774c1-0.213,1.508-0.284,2.289-0.284
			c1.42,0,2.671,0.426,2.671,0.426c1.633-1.491,2.924-3.692,2.924-7.029C197.881,36.584,195.41,33.46,192.073,33.46z"/>
	</g>
	<g>
		<path fill="#F4513B" d="M231.459,32.963c-6.391,0-9.869,6.106-9.869,14.697c0,10.65,5.538,16.33,11.715,16.33
			c6.461,0,10.011-6.248,10.011-14.839C243.316,38.572,237.707,32.963,231.459,32.963z"/>
	</g>
	<g>
		<path fill="#F4513B" d="M0,0v92.333h499.994V0H0z M48.055,47.66c0-7.171,2.343-14.342,11.076-14.342
			c4.331,0,8.236,2.698,8.236,7.313c0,9.869-13.418,9.159-13.418,17.466c0,2.769,1.917,6.603,5.396,6.603
			c3.266,0,4.615-1.704,4.615-3.55c0-1.775-0.852-3.408-2.627-4.047c0.923-1.988,2.627-2.769,4.189-2.769
			c2.627,0,4.189,2.059,4.189,4.26c0,6.745-7.952,8.875-15.336,8.875c-13.774,0-26.979-10.437-26.979-25.631
			c0-6.106,3.834-11.715,10.437-11.715c3.976,0,6.461,1.917,7.668,3.124c0.497-1.775,1.349-4.047,2.414-6.319
			c-4.97-1.988-9.443-3.55-15.265-3.55c-6.958,0-10.721,3.692-10.721,9.159c0,1.917,0.568,4.118,1.775,6.39
			c0,0-0.852,1.988-3.479,1.988c-2.414,0-3.976-2.201-3.976-5.254c0-9.088,7.242-14.91,16.401-14.91
			c5.964,0,11.928,2.13,16.33,3.976c2.485-4.615,6.816-9.088,13.277-9.088c4.615,0,9.656,2.485,9.656,7.384
			c0,5.609-6.177,7.313-11.004,7.313c-3.692,0-7.171-1.207-10.508-2.485c-2.485,5.467-4.118,11.928-4.118,18.318
			c0,5.68,1.349,10.863,4.047,15.335l0.426-0.142C49.83,59.659,48.055,53.695,48.055,47.66z M112.188,66.333
			c0,0-4.757-0.284-8.52-0.284c-5.538,0-10.153,0.284-10.153,0.284v-2.414l1.917-0.568c1.42-0.426,2.059-1.136,2.059-2.414
			c0-0.568-0.142-1.278-0.426-2.13l-1.633-4.97H84.499l-1.704,5.68c-0.142,0.426-0.213,0.852-0.213,1.207
			c0,1.278,0.781,2.272,2.201,2.627l2.485,0.568v2.414c0,0-3.763-0.284-7.952-0.284c-3.124,0-7.526,0.284-7.526,0.284v-2.414
			l1.704-0.497c1.846-0.568,3.763-1.917,4.899-5.041l10.579-28.187l6.177-0.497l10.65,29.039c1.065,2.84,1.917,3.763,4.402,4.544
			l1.988,0.639V66.333z M125.756,67.469c-4.544,0-6.745-1.562-11.644-1.562v-9.372h2.414c0.568,4.544,3.337,7.952,8.165,7.952
			c3.195,0,5.467-1.704,5.467-4.615c0-7.526-15.265-10.082-15.265-20.874c0-4.899,3.834-9.372,12.283-9.372
			c3.621,0,6.177,1.065,10.295,1.065l-0.568,8.591h-2.414c-0.639-4.828-4.331-6.674-7.242-6.674c-3.124,0-4.899,1.633-4.899,4.402
			c0,6.958,16.259,10.295,16.259,20.235C138.607,64.274,132.856,67.469,125.756,67.469z M172.864,39.495l-2.13-0.142
			c0-3.763-1.349-5.325-4.899-5.325h-4.899v25.773c0,2.485,0.852,3.195,2.556,3.621l2.698,0.497v2.414c0,0-4.686-0.284-9.727-0.284
			c-4.899,0-9.727,0.284-9.727,0.284v-2.414l1.704-0.497c2.485-0.71,3.692-1.633,3.692-4.97V34.028h-2.911
			c-3.905,0-6.532,1.349-7.668,5.538l-2.059-0.284l0.923-9.23h2.201c0,0,0.213,0.781,1.846,0.781h25.347
			c1.349,0,1.846-0.781,1.846-0.781h2.201L172.864,39.495z M214.81,65.907c0,0-2.13,1.562-6.106,1.562
			c-5.964,0-9.585-2.414-11.644-6.816l-3.408-7.384c-0.852-1.846-1.633-2.698-3.053-2.698c-0.355,0-0.781,0.142-0.781,0.142v9.088
			c0,2.485,0.852,3.195,2.556,3.621l2.343,0.497v2.414c0,0-4.26-0.284-9.301-0.284c-4.899,0-9.301,0.284-9.301,0.284v-2.414
			l1.846-0.497c1.846-0.568,3.195-1.704,3.195-4.544V37.082c0-2.485-0.852-3.195-2.556-3.621l-2.343-0.497v-2.414
			c0,0,4.331,0.284,9.372,0.284c2.556,0,5.467-0.213,8.591-0.213c8.165,0,13.206,3.763,13.206,9.443
			c0,6.177-6.248,8.449-9.017,9.088c1.349,0.852,2.343,1.917,3.479,3.834l3.337,5.609c1.917,3.195,3.905,5.609,9.585,5.609V65.907z
			 M231.246,67.469c-10.578,0-19.24-6.887-19.24-18.247c0-10.224,7.597-19.667,21.654-19.667c10.438,0,19.17,6.745,19.17,18.034
			C252.83,57.813,245.304,67.469,231.246,67.469z M280.47,66.333c0,0-11.147-0.284-17.821-0.284c-4.898,0-9.372,0.284-9.372,0.284
			v-2.414l1.847-0.497c1.846-0.568,3.194-1.704,3.194-4.544V37.082c0-2.485-0.852-3.195-2.556-3.621l-2.343-0.497v-2.414
			c0,0,4.331,0.284,9.372,0.284c4.898,0,9.371-0.284,9.371-0.284v2.414l-1.846,0.497c-1.846,0.568-3.194,1.704-3.194,4.544v21.797
			c0,2.343,1.562,3.621,3.904,3.621c4.474,0,7.242-2.84,9.301-8.023l1.775,0.284L280.47,66.333z M323.537,66.333
			c0,0-4.757-0.284-8.52-0.284c-5.538,0-10.153,0.284-10.153,0.284v-2.414l1.917-0.568c1.42-0.426,2.06-1.136,2.06-2.414
			c0-0.568-0.143-1.278-0.426-2.13l-1.634-4.97h-10.934l-1.704,5.68c-0.142,0.426-0.213,0.852-0.213,1.207
			c0,1.278,0.781,2.272,2.201,2.627l2.485,0.568v2.414c0,0-3.764-0.284-7.952-0.284c-3.124,0-7.526,0.284-7.526,0.284v-2.414
			l1.704-0.497c1.846-0.568,3.763-1.917,4.899-5.041l10.578-28.187l6.178-0.497l10.649,29.039c1.065,2.84,1.917,3.763,4.402,4.544
			l1.987,0.639V66.333z M345.271,66.333c-2.84,0-6.816-0.284-10.153-0.284c-4.898,0-9.372,0.284-9.372,0.284v-2.414l1.847-0.497
			c1.846-0.568,3.194-1.704,3.194-4.544V37.082c0-2.485-0.852-3.195-2.556-3.621l-2.343-0.497v-2.414c0,0,4.331,0.284,9.372,0.284
			c1.987,0,4.827-0.213,7.525-0.213c8.023,0,12.709,3.479,12.709,8.236c0,4.331-3.763,6.887-7.525,7.597v0.284
			c6.674,1.562,10.365,5.183,10.365,9.94C358.334,62.144,353.933,66.333,345.271,66.333z M378.128,32.963l-1.846,0.497
			c-1.846,0.568-3.194,1.704-3.194,4.544v21.797c0,2.485,0.852,3.195,2.556,3.621l2.343,0.497v2.414c0,0-4.331-0.284-9.372-0.284
			c-4.898,0-9.372,0.284-9.372,0.284v-2.414l1.847-0.497c1.846-0.568,3.194-1.704,3.194-4.544V37.082
			c0-2.485-0.852-3.195-2.556-3.621l-2.343-0.497v-2.414c0,0,4.331,0.284,9.372,0.284c4.898,0,9.371-0.284,9.371-0.284V32.963z
			 M421.885,32.963l-1.846,0.497c-1.846,0.568-3.195,1.704-3.195,4.544v16.33c0,8.52-5.608,13.135-15.123,13.135
			c-9.584,0-15.762-4.473-15.762-13.135V37.082c0-2.485-0.852-3.195-2.556-3.621l-2.343-0.497v-2.414c0,0,4.331,0.284,9.372,0.284
			c4.898,0,9.371-0.284,9.371-0.284v2.414l-1.846,0.497c-1.846,0.568-3.194,1.704-3.194,4.544v16.543
			c0,6.958,2.91,9.584,8.164,9.584c6.532,0,7.952-4.189,7.952-9.584V37.082c0-2.485-0.852-3.195-2.556-3.621l-2.343-0.497v-2.414
			c0,0,4.757,0.284,7.738,0.284c3.905,0,8.165-0.284,8.165-0.284V32.963z M474.531,66.333c0,0-6.035-0.284-9.229-0.284
			c-3.692,0-10.366,0.284-10.366,0.284v-2.414l1.846-0.497c1.988-0.497,3.764-2.201,3.551-5.751l-1.065-15.975l-10.792,24.708
			l-3.408,0.568l-11.644-25.631l-0.994,16.756c-0.142,2.982,0.213,4.757,2.77,5.254l2.769,0.568v2.414c0,0-3.195-0.284-7.739-0.284
			s-7.81,0.284-7.81,0.284v-2.414l1.775-0.497c2.91-0.852,3.691-2.414,4.117-6.39l1.42-20.164c0.143-1.988-0.78-3.053-2.981-3.408
			l-1.633-0.284v-2.627c0,0,8.804,0.284,13.276,0.284c0,1.775,0.994,4.189,1.775,5.822l9.372,19.525l8.52-19.383
			c1.065-2.485,1.207-4.473,1.207-5.964c5.325,0,10.082-0.142,12.283-0.284v2.627l-1.207,0.284c-2.06,0.497-3.195,1.42-3.054,3.621
			l1.634,22.648c0.142,2.414,1.49,3.408,2.981,3.692l2.627,0.497V66.333z"/>
	</g>
	<g>
		<polygon fill="#F4513B" points="85.706,50.667 94.226,50.667 90.107,37.887 		"/>
	</g>
	<g>
		<path fill="#F4513B" d="M67.863,23.023c0-2.769-2.556-4.615-6.106-4.615c-4.686,0-7.952,3.266-10.295,7.242
			c3.479,1.349,6.248,1.988,9.443,1.988C63.816,27.639,67.863,26.574,67.863,23.023z"/>
	</g>
</g>
</svg>
