<?xml version="1.0" encoding="utf-8"?>
<!-- Generator: Adobe Illustrator 16.0.0, SVG Export Plug-In . SVG Version: 6.00 Build 0)  -->
<!DOCTYPE svg PUBLIC "-//W3C//DTD SVG 1.1//EN" "http://www.w3.org/Graphics/SVG/1.1/DTD/svg11.dtd">
<svg version="1.1" id="Layer_1" xmlns="http://www.w3.org/2000/svg" xmlns:xlink="http://www.w3.org/1999/xlink" x="0px" y="0px"
	 width="461.997px" height="67.671px" viewBox="0 0 461.997 67.671" enable-background="new 0 0 461.997 67.671"
	 xml:space="preserve">
<g>
	<path d="M32.28,42.676c0,5.68,1.349,10.862,4.047,15.335l0.426-0.141c-0.923-1.705-2.698-7.668-2.698-13.703
		c0-7.172,2.343-14.342,11.076-14.342c4.331,0,8.236,2.697,8.236,7.313c0,9.869-13.418,9.158-13.418,17.466
		c0,2.769,1.917,6.603,5.396,6.603c3.266,0,4.615-1.703,4.615-3.55c0-1.774-0.852-3.407-2.627-4.047
		c0.923-1.987,2.627-2.769,4.189-2.769c2.627,0,4.189,2.059,4.189,4.26c0,6.744-7.952,8.875-15.336,8.875
		c-13.774,0-26.979-10.438-26.979-25.631c0-6.105,3.834-11.715,10.437-11.715c3.976,0,6.461,1.917,7.668,3.124
		c0.497-1.774,1.349-4.047,2.414-6.319c-4.97-1.988-9.443-3.55-15.265-3.55c-6.958,0-10.721,3.692-10.721,9.159
		c0,1.917,0.568,4.117,1.775,6.39c0,0-0.852,1.988-3.479,1.988c-2.414,0-3.976-2.201-3.976-5.254c0-9.088,7.242-14.91,16.401-14.91
		c5.964,0,11.928,2.13,16.33,3.976c2.485-4.614,6.816-9.088,13.277-9.088c4.615,0,9.656,2.485,9.656,7.385
		c0,5.608-6.177,7.313-11.004,7.313c-3.692,0-7.171-1.207-10.508-2.484C33.913,29.825,32.28,36.286,32.28,42.676z M37.462,22.157
		c3.479,1.349,6.248,1.988,9.443,1.988c2.911,0,6.958-1.065,6.958-4.615c0-2.77-2.556-4.615-6.106-4.615
		C43.072,14.915,39.806,18.181,37.462,22.157z"/>
	<path d="M81.148,26.204l10.65,29.039c1.065,2.84,1.917,3.762,4.402,4.543l1.988,0.639v2.414c0,0-4.757-0.283-8.52-0.283
		c-5.538,0-10.153,0.283-10.153,0.283v-2.414l1.917-0.567c1.42-0.426,2.059-1.136,2.059-2.414c0-0.567-0.142-1.278-0.426-2.13
		l-1.633-4.97H70.499l-1.704,5.68c-0.142,0.426-0.213,0.853-0.213,1.207c0,1.278,0.781,2.272,2.201,2.627l2.485,0.567v2.414
		c0,0-3.763-0.283-7.952-0.283c-3.124,0-7.526,0.283-7.526,0.283v-2.414l1.704-0.496c1.846-0.568,3.763-1.918,4.899-5.041
		L74.972,26.7L81.148,26.204z M71.706,46.723h8.52l-4.118-12.78L71.706,46.723z"/>
	<path d="M122.903,35.788h-2.414c-0.639-4.827-4.331-6.674-7.242-6.674c-3.124,0-4.899,1.633-4.899,4.402
		c0,6.958,16.259,10.295,16.259,20.234c0,7.029-5.751,10.225-12.851,10.225c-4.544,0-6.745-1.563-11.644-1.563v-9.371h2.414
		c0.568,4.543,3.337,7.951,8.165,7.951c3.195,0,5.467-1.703,5.467-4.615c0-7.525-15.265-10.082-15.265-20.873
		c0-4.898,3.834-9.372,12.283-9.372c3.621,0,6.177,1.065,10.295,1.065L122.903,35.788z"/>
	<path d="M134.44,59.929c2.485-0.711,3.692-1.633,3.692-4.971V30.534h-2.911c-3.905,0-6.532,1.35-7.668,5.539l-2.059-0.285
		l0.923-9.229h2.201c0,0,0.213,0.781,1.846,0.781h25.347c1.349,0,1.846-0.781,1.846-0.781h2.201l-0.994,9.442l-2.13-0.141
		c0-3.764-1.349-5.326-4.899-5.326h-4.899v25.773c0,2.484,0.852,3.195,2.556,3.621l2.698,0.496v2.414c0,0-4.686-0.283-9.727-0.283
		c-4.899,0-9.727,0.283-9.727,0.283v-2.414L134.44,59.929z"/>
	<path d="M175.818,56.308c0,2.484,0.852,3.195,2.556,3.621l2.343,0.496v2.414c0,0-4.26-0.283-9.301-0.283
		c-4.899,0-9.301,0.283-9.301,0.283v-2.414l1.846-0.496c1.846-0.568,3.195-1.704,3.195-4.545V33.588
		c0-2.485-0.852-3.195-2.556-3.621l-2.343-0.497v-2.414c0,0,4.331,0.284,9.372,0.284c2.556,0,5.467-0.213,8.591-0.213
		c8.165,0,13.206,3.763,13.206,9.442c0,6.178-6.248,8.449-9.017,9.088c1.349,0.853,2.343,1.918,3.479,3.834l3.337,5.609
		c1.917,3.195,3.905,5.609,9.585,5.609v1.703c0,0-2.13,1.563-6.106,1.563c-5.964,0-9.585-2.414-11.644-6.816l-3.408-7.384
		c-0.852-1.846-1.633-2.698-3.053-2.698c-0.355,0-0.781,0.143-0.781,0.143V56.308z M175.889,30.18v13.774
		c0.781-0.213,1.562-0.285,2.343-0.285c1.42,0,2.698,0.427,2.698,0.427c1.633-1.491,2.911-3.692,2.911-7.028
		c0-3.977-2.485-7.101-5.822-7.101C177.167,29.967,176.457,30.038,175.889,30.18z"/>
	<path d="M238.83,44.096c0,10.224-7.525,19.88-21.584,19.88c-10.578,0-19.24-6.887-19.24-18.247
		c0-10.224,7.597-19.667,21.654-19.667C230.097,26.062,238.83,32.807,238.83,44.096z M229.316,45.657
		c0-10.578-5.609-16.188-11.856-16.188c-6.391,0-9.869,6.105-9.869,14.697c0,10.649,5.538,16.33,11.715,16.33
		C225.766,60.497,229.316,54.249,229.316,45.657z"/>
	<path d="M239.277,62.839v-2.414l1.847-0.496c1.846-0.568,3.194-1.704,3.194-4.545V33.588c0-2.485-0.852-3.195-2.556-3.621
		l-2.343-0.497v-2.414c0,0,4.331,0.284,9.372,0.284c4.898,0,9.371-0.284,9.371-0.284v2.414l-1.846,0.497
		c-1.846,0.567-3.194,1.704-3.194,4.544v21.797c0,2.343,1.562,3.621,3.904,3.621c4.474,0,7.242-2.84,9.301-8.023l1.775,0.284
		l-1.633,10.649c0,0-11.147-0.283-17.821-0.283C243.75,62.556,239.277,62.839,239.277,62.839z"/>
	<path d="M292.498,26.204l10.649,29.039c1.065,2.84,1.917,3.762,4.402,4.543l1.987,0.639v2.414c0,0-4.757-0.283-8.52-0.283
		c-5.538,0-10.153,0.283-10.153,0.283v-2.414l1.917-0.567c1.42-0.426,2.06-1.136,2.06-2.414c0-0.567-0.143-1.278-0.426-2.13
		l-1.634-4.97h-10.934l-1.704,5.68c-0.142,0.426-0.213,0.853-0.213,1.207c0,1.278,0.781,2.272,2.201,2.627l2.485,0.567v2.414
		c0,0-3.764-0.283-7.952-0.283c-3.124,0-7.526,0.283-7.526,0.283v-2.414l1.704-0.496c1.846-0.568,3.763-1.918,4.899-5.041
		L286.32,26.7L292.498,26.204z M283.054,46.723h8.52l-4.117-12.78L283.054,46.723z"/>
	<path d="M311.746,62.839v-2.414l1.847-0.496c1.846-0.568,3.194-1.704,3.194-4.545V33.588c0-2.485-0.852-3.195-2.556-3.621
		l-2.343-0.497v-2.414c0,0,4.331,0.284,9.372,0.284c1.987,0,4.827-0.213,7.525-0.213c8.023,0,12.709,3.479,12.709,8.235
		c0,4.332-3.763,6.887-7.525,7.598v0.283c6.674,1.563,10.365,5.184,10.365,9.94c0,5.467-4.401,9.655-13.063,9.655
		c-2.84,0-6.816-0.283-10.153-0.283C316.219,62.556,311.746,62.839,311.746,62.839z M325.591,42.534
		c1.42-0.143,2.91-0.143,4.401,0.07c1.42-1.42,2.698-4.331,2.698-6.816c0-4.047-2.201-5.821-5.254-5.821
		c-0.781,0-1.278,0.071-1.846,0.213V42.534z M325.591,44.948v10.934c0,2.769,1.136,4.047,3.55,4.047c3.763,0,5.68-2.84,5.68-6.319
		C334.821,47.503,330.348,44.948,325.591,44.948z"/>
	<path d="M347.089,59.929c1.846-0.568,3.194-1.704,3.194-4.545V33.588c0-2.485-0.852-3.195-2.556-3.621l-2.343-0.497v-2.414
		c0,0,4.331,0.284,9.372,0.284c4.898,0,9.371-0.284,9.371-0.284v2.414l-1.846,0.497c-1.846,0.567-3.194,1.704-3.194,4.544v21.797
		c0,2.484,0.852,3.195,2.556,3.621l2.343,0.496v2.414c0,0-4.331-0.283-9.372-0.283c-4.898,0-9.372,0.283-9.372,0.283v-2.414
		L347.089,59.929z"/>
	<path d="M402.844,50.841c0,8.52-5.608,13.135-15.123,13.135c-9.584,0-15.762-4.473-15.762-13.135V33.588
		c0-2.485-0.852-3.195-2.556-3.621l-2.343-0.497v-2.414c0,0,4.331,0.284,9.372,0.284c4.898,0,9.371-0.284,9.371-0.284v2.414
		l-1.846,0.497c-1.846,0.567-3.194,1.704-3.194,4.544v16.543c0,6.957,2.91,9.584,8.164,9.584c6.532,0,7.952-4.188,7.952-9.584
		V33.588c0-2.485-0.852-3.195-2.556-3.621l-2.343-0.497v-2.414c0,0,4.757,0.284,7.738,0.284c3.905,0,8.165-0.284,8.165-0.284v2.414
		l-1.846,0.497c-1.846,0.567-3.195,1.704-3.195,4.544V50.841z"/>
	<path d="M415.73,33.374c0.143-1.987-0.78-3.053-2.981-3.407l-1.633-0.284v-2.627c0,0,8.804,0.284,13.276,0.284
		c0,1.774,0.994,4.188,1.775,5.821l9.372,19.525l8.52-19.383c1.065-2.484,1.207-4.473,1.207-5.964
		c5.325,0,10.082-0.142,12.283-0.284v2.627l-1.207,0.284c-2.06,0.497-3.195,1.42-3.054,3.621l1.634,22.648
		c0.142,2.414,1.49,3.408,2.981,3.692l2.627,0.496v2.414c0,0-6.035-0.283-9.229-0.283c-3.692,0-10.366,0.283-10.366,0.283v-2.414
		l1.846-0.496c1.988-0.497,3.764-2.201,3.551-5.752l-1.065-15.975L434.474,62.91l-3.408,0.568l-11.644-25.631l-0.994,16.756
		c-0.142,2.981,0.213,4.757,2.77,5.254l2.769,0.567v2.414c0,0-3.195-0.283-7.739-0.283s-7.81,0.283-7.81,0.283v-2.414l1.775-0.496
		c2.91-0.853,3.691-2.414,4.117-6.391L415.73,33.374z"/>
</g>
</svg>
